<svg width="1200" height="900" viewBox="0 0 1200 900" fill="none" xmlns="http://www.w3.org/2000/svg">
  <rect width="1200" height="900" fill="#070A18"/>
  <rect x="72" y="70" width="1056" height="760" rx="40" fill="#0E1430"/>
  <rect x="112" y="118" width="976" height="96" rx="24" fill="#FFFFFF" fill-opacity=".08"/>
  <circle cx="158" cy="166" r="18" fill="#84CC16"/>
  <circle cx="210" cy="166" r="18" fill="#38BDF8"/>
  <circle cx="262" cy="166" r="18" fill="#A78BFA"/>
  <rect x="340" y="148" width="384" height="36" rx="18" fill="#FFFFFF" fill-opacity=".12"/>
  <rect x="112" y="250" width="438" height="458" rx="30" fill="#FFFFFF" fill-opacity=".08"/>
  <rect x="146" y="288" width="190" height="20" rx="10" fill="#7DD3FC"/>
  <rect x="146" y="336" width="342" height="34" rx="17" fill="#FFFFFF" fill-opacity=".75"/>
  <rect x="146" y="394" width="278" height="22" rx="11" fill="#FFFFFF" fill-opacity=".28"/>
  <rect x="146" y="432" width="316" height="22" rx="11" fill="#FFFFFF" fill-opacity=".18"/>
  <rect x="146" y="502" width="146" height="54" rx="27" fill="#84CC16"/>
  <rect x="314" y="502" width="146" height="54" rx="27" fill="#FFFFFF" fill-opacity=".12"/>
  <rect x="146" y="604" width="78" height="78" rx="20" fill="#FFFFFF" fill-opacity=".1"/>
  <rect x="252" y="604" width="78" height="78" rx="20" fill="#FFFFFF" fill-opacity=".1"/>
  <rect x="358" y="604" width="78" height="78" rx="20" fill="#FFFFFF" fill-opacity=".1"/>
  <path d="M185 628l14 14-14 14-14-14 14-14z" fill="#7DD3FC"/>
  <path d="M291 625l18 34h-36l18-34z" fill="#A78BFA"/>
  <circle cx="397" cy="643" r="18" fill="#84CC16"/>
  <rect x="596" y="250" width="492" height="178" rx="30" fill="#FFFFFF" fill-opacity=".1"/>
  <rect x="636" y="294" width="122" height="18" rx="9" fill="#84CC16"/>
  <rect x="636" y="338" width="326" height="28" rx="14" fill="#FFFFFF" fill-opacity=".62"/>
  <rect x="636" y="388" width="224" height="18" rx="9" fill="#FFFFFF" fill-opacity=".2"/>
  <rect x="596" y="458" width="236" height="250" rx="30" fill="#FFFFFF" fill-opacity=".08"/>
  <rect x="852" y="458" width="236" height="250" rx="30" fill="#FFFFFF" fill-opacity=".08"/>
  <path d="M714 537c44 0 80 36 80 80s-36 80-80 80-80-36-80-80 36-80 80-80zm0 34a46 46 0 100 92 46 46 0 000-92z" fill="#38BDF8" fill-opacity=".84"/>
  <path d="M974 522l82 143H892l82-143z" fill="#A78BFA" fill-opacity=".84"/>
  <path d="M926 770c-250 60-454 34-612-78" stroke="#84CC16" stroke-width="6" stroke-linecap="round" opacity=".65"/>
</svg>
